<svg id="svg" version="1.1" xmlns="http://www.w3.org/2000/svg" xmlns:xlink="http://www.w3.org/1999/xlink" width="400" height="339.17808219178085" viewBox="0, 0, 400,339.17808219178085"><g id="svgg"><path id="path0" d="M127.437 0.360 C 126.153 0.509,124.939 0.794,124.740 0.994 C 124.540 1.194,124.102 1.357,123.766 1.357 C 123.430 1.357,123.155 1.490,123.155 1.653 C 123.155 1.816,122.545 2.047,121.798 2.166 C 121.052 2.285,120.441 2.534,120.441 2.718 C 120.441 2.903,120.059 3.053,119.593 3.053 C 119.126 3.053,118.745 3.206,118.745 3.393 C 118.745 3.579,118.435 3.732,118.056 3.732 C 117.676 3.732,117.280 3.957,117.175 4.232 C 117.069 4.506,116.468 4.828,115.840 4.946 C 115.140 5.077,114.617 5.410,114.493 5.803 C 114.380 6.157,114.070 6.446,113.802 6.446 C 113.535 6.446,112.721 7.042,111.993 7.770 C 111.265 8.498,110.357 9.193,109.975 9.314 C 109.592 9.435,109.188 9.824,109.075 10.178 C 108.963 10.532,108.574 10.916,108.210 11.032 C 107.846 11.147,107.549 11.455,107.549 11.716 C 107.549 11.977,107.091 12.659,106.531 13.232 C 105.971 13.804,105.513 14.420,105.513 14.600 C 105.513 14.780,105.371 14.928,105.197 14.928 C 105.023 14.928,104.772 15.271,104.639 15.691 C 104.507 16.111,104.125 16.693,103.791 16.984 C 103.457 17.275,103.081 17.923,102.955 18.426 C 102.829 18.928,102.606 19.338,102.461 19.338 C 102.315 19.338,102.096 19.873,101.973 20.526 C 101.851 21.179,101.605 21.713,101.427 21.713 C 101.248 21.713,101.103 22.095,101.103 22.561 C 101.103 23.028,100.969 23.410,100.807 23.410 C 100.644 23.410,100.408 24.054,100.282 24.841 C 100.156 25.629,99.911 26.361,99.737 26.468 C 99.563 26.576,99.319 27.993,99.194 29.617 C 99.069 31.241,98.837 32.570,98.678 32.570 C 98.519 32.570,98.388 34.326,98.388 36.472 C 98.388 38.617,98.523 40.373,98.688 40.373 C 98.852 40.373,99.095 41.670,99.227 43.256 C 99.359 44.841,99.597 46.219,99.756 46.317 C 99.915 46.415,100.148 47.179,100.273 48.015 C 100.399 48.850,100.636 49.534,100.802 49.534 C 100.967 49.534,101.103 49.763,101.103 50.042 C 101.103 50.322,101.255 50.551,101.442 50.551 C 101.628 50.551,101.786 50.895,101.793 51.315 C 101.799 51.735,102.099 52.689,102.460 53.435 C 102.820 54.182,103.120 54.953,103.127 55.149 C 103.145 55.721,103.963 57.331,104.237 57.334 C 104.375 57.336,104.585 57.947,104.704 58.694 C 104.824 59.440,105.054 60.051,105.217 60.051 C 105.380 60.051,105.513 60.280,105.513 60.560 C 105.513 60.840,105.664 61.069,105.848 61.069 C 106.033 61.069,106.281 61.679,106.401 62.426 C 106.520 63.172,106.744 63.783,106.898 63.783 C 107.053 63.783,107.279 64.317,107.402 64.970 C 107.524 65.623,107.760 66.158,107.926 66.158 C 108.092 66.158,108.227 66.539,108.227 67.006 C 108.227 67.472,108.378 67.854,108.563 67.854 C 108.747 67.854,108.995 68.465,109.115 69.211 C 109.234 69.958,109.453 70.568,109.601 70.568 C 109.749 70.568,109.970 71.026,110.093 71.586 C 110.216 72.146,110.457 72.604,110.629 72.604 C 110.801 72.604,110.941 72.986,110.941 73.452 C 110.941 73.919,111.082 74.300,111.254 74.300 C 111.426 74.300,111.667 74.758,111.790 75.318 C 111.913 75.878,112.154 76.336,112.326 76.336 C 112.497 76.336,112.638 76.718,112.638 77.184 C 112.638 77.651,112.784 78.032,112.962 78.032 C 113.140 78.032,113.386 78.567,113.508 79.220 C 113.631 79.873,113.847 80.407,113.989 80.407 C 114.131 80.407,114.345 81.018,114.464 81.764 C 114.584 82.511,114.832 83.121,115.017 83.121 C 115.201 83.121,115.352 83.350,115.352 83.630 C 115.352 83.910,115.485 84.139,115.648 84.139 C 115.811 84.139,116.041 84.750,116.161 85.496 C 116.280 86.243,116.509 86.853,116.670 86.853 C 116.830 86.853,117.059 87.464,117.179 88.210 C 117.298 88.957,117.547 89.567,117.731 89.567 C 117.915 89.567,118.066 89.796,118.066 90.076 C 118.066 90.356,118.199 90.585,118.362 90.585 C 118.525 90.585,118.756 91.196,118.875 91.942 C 118.994 92.689,119.243 93.299,119.427 93.299 C 119.612 93.299,119.763 93.605,119.763 93.978 C 119.763 94.351,119.896 94.656,120.058 94.656 C 120.221 94.656,120.452 95.267,120.571 96.014 C 120.691 96.760,120.937 97.371,121.120 97.371 C 121.302 97.371,121.548 97.981,121.668 98.728 C 121.787 99.474,122.018 100.085,122.181 100.085 C 122.344 100.085,122.477 100.314,122.477 100.594 C 122.477 100.874,122.628 101.103,122.812 101.103 C 122.996 101.103,123.245 101.713,123.364 102.460 C 123.484 103.206,123.713 103.817,123.873 103.817 C 124.034 103.817,124.263 104.427,124.382 105.174 C 124.501 105.920,124.732 106.531,124.895 106.531 C 125.058 106.531,125.191 106.760,125.191 107.040 C 125.191 107.320,125.324 107.549,125.488 107.549 C 125.651 107.549,125.884 108.044,126.005 108.649 C 126.282 110.038,126.975 111.620,127.305 111.620 C 127.444 111.620,127.655 112.231,127.775 112.977 C 127.894 113.723,128.113 114.334,128.261 114.334 C 128.409 114.334,128.630 114.792,128.753 115.352 C 128.876 115.912,129.117 116.370,129.289 116.370 C 129.461 116.370,129.601 116.751,129.601 117.218 C 129.601 117.684,129.747 118.066,129.925 118.066 C 130.103 118.066,130.349 118.601,130.472 119.254 C 130.594 119.907,130.830 120.441,130.996 120.441 C 131.162 120.441,131.298 120.685,131.298 120.984 C 131.298 121.563,132.301 123.890,132.673 124.173 C 132.796 124.266,133.001 124.915,133.130 125.615 C 133.259 126.315,133.510 126.887,133.688 126.887 C 133.866 126.887,134.012 127.269,134.012 127.735 C 134.012 128.202,134.152 128.584,134.324 128.584 C 134.496 128.584,134.737 129.042,134.860 129.601 C 134.983 130.161,135.205 130.619,135.353 130.619 C 135.500 130.619,135.719 131.230,135.839 131.976 C 135.958 132.723,136.206 133.333,136.391 133.333 C 136.575 133.333,136.726 133.639,136.726 134.012 C 136.726 134.385,136.865 134.690,137.035 134.690 C 137.206 134.690,137.448 135.301,137.574 136.047 C 137.700 136.794,137.941 137.405,138.109 137.405 C 138.277 137.405,138.512 138.015,138.631 138.762 C 138.751 139.508,138.982 140.119,139.144 140.119 C 139.307 140.119,139.440 140.348,139.440 140.628 C 139.440 140.908,139.591 141.137,139.775 141.137 C 139.960 141.137,140.208 141.747,140.328 142.494 C 140.447 143.240,140.653 143.851,140.786 143.851 C 140.918 143.851,141.312 144.690,141.661 145.717 C 142.009 146.743,142.403 147.583,142.534 147.583 C 142.666 147.583,142.876 148.193,143.003 148.940 C 143.129 149.686,143.371 150.297,143.541 150.297 C 143.711 150.297,143.851 150.602,143.851 150.975 C 143.851 151.349,144.002 151.654,144.186 151.654 C 144.370 151.654,144.619 152.265,144.738 153.011 C 144.858 153.757,145.076 154.368,145.224 154.368 C 145.372 154.368,145.594 154.826,145.717 155.386 C 145.840 155.946,146.081 156.404,146.253 156.404 C 146.424 156.404,146.565 156.785,146.565 157.252 C 146.565 157.718,146.711 158.100,146.889 158.100 C 147.067 158.100,147.313 158.634,147.435 159.288 C 147.558 159.941,147.794 160.475,147.960 160.475 C 148.126 160.475,148.261 160.687,148.261 160.945 C 148.261 161.204,148.489 161.853,148.768 162.387 C 149.047 162.921,149.276 163.626,149.277 163.953 C 149.278 164.279,149.415 164.546,149.581 164.546 C 149.746 164.546,149.982 165.081,150.105 165.734 C 150.227 166.387,150.473 166.921,150.652 166.921 C 150.830 166.921,150.975 167.303,150.975 167.769 C 150.975 168.236,151.116 168.617,151.288 168.617 C 151.459 168.617,151.701 169.075,151.824 169.635 C 151.947 170.195,152.168 170.653,152.316 170.653 C 152.464 170.653,152.683 171.264,152.802 172.010 C 152.921 172.757,153.170 173.367,153.354 173.367 C 153.539 173.367,153.690 173.673,153.690 174.046 C 153.690 174.419,153.829 174.724,153.999 174.724 C 154.169 174.724,154.412 175.335,154.538 176.081 C 154.664 176.828,154.875 177.439,155.006 177.439 C 155.138 177.439,155.531 178.278,155.880 179.304 C 156.229 180.331,156.622 181.170,156.755 181.170 C 156.887 181.170,157.093 181.781,157.213 182.528 C 157.332 183.274,157.580 183.885,157.765 183.885 C 157.949 183.885,158.100 184.114,158.100 184.394 C 158.100 184.673,158.233 184.902,158.396 184.902 C 158.559 184.902,158.790 185.513,158.909 186.260 C 159.028 187.006,159.263 187.617,159.431 187.617 C 159.599 187.617,159.840 188.227,159.966 188.974 C 160.092 189.720,160.335 190.331,160.505 190.331 C 160.675 190.331,160.814 190.636,160.814 191.009 C 160.814 191.383,160.960 191.688,161.138 191.688 C 161.316 191.688,161.567 192.260,161.696 192.960 C 161.825 193.660,162.022 194.309,162.135 194.402 C 162.580 194.770,163.528 196.868,163.528 197.483 C 163.528 197.841,163.669 198.134,163.841 198.134 C 164.013 198.134,164.254 198.592,164.377 199.152 C 164.500 199.712,164.741 200.170,164.912 200.170 C 165.084 200.170,165.225 200.551,165.225 201.018 C 165.225 201.484,165.364 201.866,165.534 201.866 C 165.704 201.866,165.947 202.477,166.073 203.223 C 166.199 203.969,166.424 204.580,166.574 204.580 C 166.723 204.580,166.946 205.115,167.068 205.768 C 167.191 206.421,167.437 206.955,167.615 206.955 C 167.793 206.955,167.939 207.337,167.939 207.803 C 167.939 208.270,168.079 208.651,168.251 208.651 C 168.423 208.651,168.664 209.109,168.787 209.669 C 168.910 210.229,169.151 210.687,169.323 210.687 C 169.495 210.687,169.635 211.007,169.635 211.398 C 169.635 212.129,170.624 214.161,171.077 214.362 C 171.217 214.425,171.332 214.783,171.332 215.159 C 171.332 215.848,172.292 218.175,172.707 218.490 C 172.830 218.584,173.035 219.232,173.164 219.932 C 173.293 220.632,173.524 221.204,173.679 221.204 C 173.833 221.204,174.057 221.815,174.176 222.561 C 174.295 223.308,174.544 223.919,174.728 223.919 C 174.913 223.919,175.064 224.148,175.064 224.427 C 175.064 224.707,175.197 224.936,175.360 224.936 C 175.522 224.936,175.753 225.547,175.872 226.293 C 175.992 227.040,176.239 227.651,176.421 227.651 C 176.603 227.651,176.850 228.261,176.969 229.008 C 177.088 229.754,177.319 230.365,177.482 230.365 C 177.645 230.365,177.778 230.670,177.778 231.043 C 177.778 231.416,177.929 231.722,178.113 231.722 C 178.297 231.722,178.546 232.332,178.665 233.079 C 178.785 233.825,179.015 234.436,179.178 234.436 C 179.341 234.436,179.474 234.665,179.474 234.945 C 179.474 235.225,179.625 235.454,179.809 235.454 C 179.994 235.454,180.242 236.064,180.362 236.811 C 180.481 237.557,180.710 238.168,180.871 238.168 C 181.031 238.168,181.260 238.779,181.379 239.525 C 181.499 240.271,181.730 240.882,181.892 240.882 C 182.055 240.882,182.188 241.111,182.188 241.391 C 182.188 241.671,182.339 241.900,182.524 241.900 C 182.708 241.900,182.956 242.511,183.076 243.257 C 183.195 244.003,183.426 244.614,183.589 244.614 C 183.751 244.614,183.885 244.890,183.885 245.228 C 183.885 245.565,184.109 246.138,184.383 246.500 C 184.657 246.862,184.886 247.502,184.892 247.922 C 184.898 248.342,185.043 248.685,185.215 248.685 C 185.387 248.685,185.628 249.143,185.751 249.703 C 185.874 250.263,186.115 250.721,186.286 250.721 C 186.458 250.721,186.599 251.103,186.599 251.569 C 186.599 252.036,186.739 252.417,186.911 252.417 C 187.083 252.417,187.324 252.875,187.447 253.435 C 187.570 253.995,187.792 254.453,187.939 254.453 C 188.087 254.453,188.306 255.064,188.425 255.810 C 188.545 256.556,188.793 257.167,188.978 257.167 C 189.162 257.167,189.313 257.472,189.313 257.846 C 189.313 258.219,189.446 258.524,189.609 258.524 C 189.772 258.524,190.002 259.135,190.122 259.881 C 190.241 260.628,190.490 261.238,190.674 261.238 C 190.858 261.238,191.009 261.558,191.009 261.949 C 191.009 262.602,191.917 264.569,192.402 264.970 C 192.515 265.064,192.713 265.712,192.842 266.412 C 192.970 267.112,193.221 267.684,193.400 267.684 C 193.578 267.684,193.723 267.913,193.723 268.193 C 193.723 268.473,193.857 268.702,194.019 268.702 C 194.182 268.702,194.413 269.313,194.532 270.059 C 194.652 270.806,194.881 271.416,195.042 271.416 C 195.203 271.416,195.434 271.911,195.555 272.517 C 195.833 273.906,196.525 275.488,196.856 275.488 C 196.995 275.488,197.206 276.098,197.325 276.845 C 197.445 277.591,197.659 278.202,197.801 278.202 C 197.944 278.202,198.162 278.622,198.286 279.135 C 198.612 280.484,199.277 281.934,199.570 281.934 C 199.709 281.934,199.920 282.545,200.039 283.291 C 200.159 284.037,200.390 284.648,200.552 284.648 C 200.715 284.648,200.848 284.877,200.848 285.157 C 200.848 285.437,200.991 285.666,201.167 285.666 C 201.342 285.666,201.588 286.353,201.714 287.193 C 201.840 288.032,202.066 288.719,202.217 288.719 C 202.367 288.719,202.591 289.177,202.714 289.737 C 202.837 290.297,203.078 290.755,203.250 290.755 C 203.422 290.755,203.562 291.137,203.562 291.603 C 203.562 292.070,203.703 292.451,203.875 292.451 C 204.046 292.451,204.288 292.909,204.411 293.469 C 204.533 294.029,204.755 294.487,204.903 294.487 C 205.051 294.487,205.270 295.098,205.389 295.844 C 205.508 296.590,205.757 297.201,205.941 297.201 C 206.126 297.201,206.277 297.583,206.277 298.049 C 206.277 298.516,206.422 298.897,206.600 298.897 C 206.779 298.897,207.025 299.432,207.147 300.085 C 207.270 300.738,207.506 301.272,207.671 301.272 C 207.837 301.272,207.973 301.654,207.973 302.120 C 207.973 302.587,208.113 302.969,208.285 302.969 C 208.457 302.969,208.698 303.427,208.821 303.986 C 208.944 304.546,209.166 305.004,209.314 305.004 C 209.461 305.004,209.680 305.615,209.799 306.361 C 209.919 307.108,210.167 307.718,210.352 307.718 C 210.536 307.718,210.687 307.947,210.687 308.227 C 210.687 308.507,210.820 308.736,210.983 308.736 C 211.146 308.736,211.376 309.347,211.496 310.093 C 211.615 310.840,211.850 311.450,212.018 311.450 C 212.186 311.450,212.427 312.061,212.553 312.807 C 212.679 313.554,212.922 314.165,213.092 314.165 C 213.262 314.165,213.401 314.470,213.401 314.843 C 213.401 315.216,213.534 315.522,213.697 315.522 C 213.860 315.522,214.091 316.132,214.210 316.879 C 214.329 317.625,214.578 318.236,214.762 318.236 C 214.947 318.236,215.098 318.465,215.098 318.745 C 215.098 319.025,215.238 319.254,215.410 319.254 C 215.582 319.254,215.823 319.712,215.946 320.271 C 216.069 320.831,216.300 321.289,216.459 321.289 C 216.618 321.289,216.857 321.633,216.989 322.053 C 217.122 322.472,217.514 323.063,217.860 323.365 C 218.207 323.666,218.490 324.075,218.490 324.272 C 218.490 324.469,218.948 325.088,219.508 325.648 C 220.068 326.207,220.526 326.765,220.526 326.888 C 220.526 327.184,223.149 329.771,223.449 329.771 C 223.578 329.771,224.249 330.364,224.938 331.089 C 225.628 331.814,226.520 332.511,226.921 332.639 C 227.322 332.766,227.651 333.013,227.651 333.187 C 227.651 333.361,227.880 333.503,228.159 333.503 C 228.439 333.503,228.668 333.656,228.668 333.842 C 228.668 334.029,228.978 334.182,229.358 334.182 C 229.737 334.182,230.133 334.406,230.238 334.681 C 230.344 334.956,230.950 335.278,231.585 335.397 C 232.220 335.517,232.740 335.750,232.740 335.916 C 232.740 336.081,233.045 336.217,233.418 336.217 C 233.791 336.217,234.097 336.360,234.097 336.536 C 234.097 336.711,234.784 336.957,235.623 337.083 C 236.463 337.209,237.150 337.447,237.150 337.613 C 237.150 337.778,237.595 337.913,238.140 337.913 C 238.684 337.913,239.183 338.076,239.250 338.275 C 239.319 338.484,240.807 338.708,242.756 338.805 C 246.105 338.971,246.694 338.582,243.766 338.138 C 232.523 336.434,220.518 326.297,216.779 315.352 C 212.930 304.084,213.844 295.347,220.331 281.425 C 220.960 280.075,222.803 275.742,223.650 273.622 C 224.023 272.689,224.537 271.467,224.793 270.908 C 225.554 269.241,226.636 266.678,227.871 263.613 C 228.510 262.027,229.321 260.119,229.672 259.372 C 230.024 258.626,230.796 256.870,231.390 255.471 C 231.983 254.071,232.663 252.468,232.902 251.908 C 233.141 251.349,233.736 249.936,234.225 248.770 C 234.714 247.604,235.515 245.696,236.004 244.529 C 237.929 239.938,239.781 235.662,240.758 233.554 C 241.200 232.602,241.561 231.672,241.561 231.486 C 241.561 231.300,241.774 230.704,242.036 230.162 C 242.461 229.281,243.792 226.215,245.189 222.901 C 246.651 219.430,247.495 217.473,248.186 215.946 C 249.251 213.592,249.778 211.563,249.360 211.422 C 249.176 211.360,249.025 211.093,249.025 210.828 C 249.025 210.564,248.872 210.348,248.685 210.348 C 248.499 210.348,248.341 210.004,248.335 209.584 C 248.328 209.165,248.028 208.210,247.668 207.464 C 247.307 206.718,247.007 205.946,247.000 205.750 C 246.982 205.178,246.164 203.568,245.890 203.565 C 245.753 203.564,245.542 202.952,245.423 202.205 C 245.304 201.459,245.085 200.848,244.937 200.848 C 244.789 200.848,244.567 200.390,244.444 199.830 C 244.321 199.271,244.080 198.813,243.909 198.813 C 243.737 198.813,243.596 198.431,243.596 197.964 C 243.596 197.498,243.451 197.116,243.272 197.116 C 243.094 197.116,242.843 196.544,242.715 195.844 C 242.586 195.144,242.380 194.495,242.257 194.402 C 241.835 194.081,240.882 191.754,240.882 191.043 C 240.882 190.651,240.742 190.331,240.570 190.331 C 240.398 190.331,240.157 189.873,240.034 189.313 C 239.911 188.753,239.670 188.295,239.498 188.295 C 239.326 188.295,239.186 187.913,239.186 187.447 C 239.186 186.980,239.045 186.599,238.873 186.599 C 238.702 186.599,238.461 186.141,238.338 185.581 C 238.215 185.021,237.993 184.563,237.845 184.563 C 237.697 184.563,237.478 183.953,237.359 183.206 C 237.240 182.460,236.991 181.849,236.807 181.849 C 236.622 181.849,236.472 181.544,236.472 181.170 C 236.472 180.797,236.338 180.492,236.176 180.492 C 236.013 180.492,235.782 179.881,235.663 179.135 C 235.543 178.388,235.295 177.778,235.110 177.778 C 234.926 177.778,234.775 177.396,234.775 176.930 C 234.775 176.463,234.635 176.081,234.463 176.081 C 234.291 176.081,234.050 175.623,233.927 175.064 C 233.804 174.504,233.582 174.046,233.435 174.046 C 233.287 174.046,233.068 173.435,232.949 172.689 C 232.829 171.942,232.581 171.332,232.396 171.332 C 232.212 171.332,232.061 171.103,232.061 170.823 C 232.061 170.543,231.928 170.314,231.765 170.314 C 231.602 170.314,231.372 169.703,231.252 168.957 C 231.133 168.210,230.903 167.600,230.742 167.600 C 230.581 167.600,230.351 167.105,230.230 166.500 C 229.952 165.110,229.259 163.528,228.929 163.528 C 228.790 163.528,228.579 162.918,228.459 162.171 C 228.340 161.425,228.109 160.814,227.946 160.814 C 227.784 160.814,227.651 160.585,227.651 160.305 C 227.651 160.025,227.517 159.796,227.355 159.796 C 227.192 159.796,226.961 159.186,226.842 158.439 C 226.722 157.693,226.476 157.082,226.293 157.082 C 226.111 157.082,225.865 156.472,225.745 155.725 C 225.626 154.979,225.395 154.368,225.232 154.368 C 225.070 154.368,224.936 154.139,224.936 153.859 C 224.936 153.579,224.801 153.350,224.635 153.350 C 224.469 153.350,224.234 152.822,224.113 152.177 C 223.992 151.532,223.671 150.578,223.399 150.057 C 223.127 149.536,222.904 148.919,222.903 148.685 C 222.902 148.452,222.748 148.261,222.561 148.261 C 222.375 148.261,222.222 147.880,222.222 147.413 C 222.222 146.947,222.082 146.565,221.910 146.565 C 221.738 146.565,221.497 146.107,221.374 145.547 C 221.251 144.987,221.010 144.529,220.838 144.529 C 220.666 144.529,220.526 144.148,220.526 143.681 C 220.526 143.215,220.380 142.833,220.202 142.833 C 220.024 142.833,219.778 142.299,219.655 141.645 C 219.533 140.992,219.310 140.458,219.161 140.458 C 219.011 140.458,218.786 139.847,218.660 139.101 C 218.534 138.355,218.291 137.744,218.121 137.744 C 217.951 137.744,217.812 137.362,217.812 136.896 C 217.812 136.429,217.671 136.047,217.499 136.047 C 217.328 136.047,217.086 135.589,216.964 135.030 C 216.841 134.470,216.619 134.012,216.471 134.012 C 216.323 134.012,216.104 133.401,215.985 132.655 C 215.866 131.908,215.617 131.298,215.433 131.298 C 215.248 131.298,215.098 131.069,215.098 130.789 C 215.098 130.509,214.964 130.280,214.802 130.280 C 214.639 130.280,214.408 129.669,214.289 128.923 C 214.169 128.176,213.921 127.566,213.736 127.566 C 213.552 127.566,213.401 127.260,213.401 126.887 C 213.401 126.514,213.262 126.209,213.092 126.209 C 212.922 126.209,212.679 125.598,212.553 124.852 C 212.427 124.105,212.186 123.494,212.018 123.494 C 211.850 123.494,211.615 122.884,211.496 122.137 C 211.376 121.391,211.146 120.780,210.983 120.780 C 210.820 120.780,210.687 120.551,210.687 120.271 C 210.687 119.992,210.554 119.763,210.391 119.763 C 210.228 119.763,209.998 119.152,209.878 118.405 C 209.759 117.659,209.512 117.048,209.330 117.048 C 209.148 117.048,208.901 116.438,208.782 115.691 C 208.662 114.945,208.432 114.334,208.269 114.334 C 208.106 114.334,207.973 114.105,207.973 113.825 C 207.973 113.545,207.834 113.316,207.663 113.316 C 207.493 113.316,207.251 112.706,207.125 111.959 C 206.999 111.213,206.756 110.602,206.586 110.602 C 206.416 110.602,206.277 110.297,206.277 109.924 C 206.277 109.550,206.126 109.245,205.941 109.245 C 205.757 109.245,205.508 108.634,205.389 107.888 C 205.270 107.142,205.051 106.531,204.903 106.531 C 204.755 106.531,204.533 106.073,204.411 105.513 C 204.288 104.953,204.046 104.495,203.875 104.495 C 203.703 104.495,203.562 104.114,203.562 103.647 C 203.562 103.181,203.411 102.799,203.227 102.799 C 203.043 102.799,202.794 102.188,202.675 101.442 C 202.555 100.696,202.337 100.085,202.189 100.085 C 202.041 100.085,201.820 99.629,201.697 99.071 C 201.575 98.513,201.334 97.970,201.161 97.863 C 200.989 97.757,200.848 97.374,200.848 97.011 C 200.848 96.649,200.712 96.353,200.547 96.353 C 200.381 96.353,200.145 95.818,200.022 95.165 C 199.900 94.512,199.654 93.978,199.476 93.978 C 199.298 93.978,199.152 93.596,199.152 93.130 C 199.152 92.663,199.011 92.282,198.840 92.282 C 198.668 92.282,198.427 91.824,198.304 91.264 C 198.181 90.704,197.959 90.246,197.811 90.246 C 197.663 90.246,197.445 89.635,197.325 88.889 C 197.206 88.142,196.957 87.532,196.773 87.532 C 196.589 87.532,196.438 87.226,196.438 86.853 C 196.438 86.480,196.298 86.175,196.128 86.175 C 195.958 86.175,195.716 85.564,195.589 84.818 C 195.463 84.071,195.221 83.461,195.051 83.461 C 194.881 83.461,194.741 83.216,194.741 82.918 C 194.741 82.338,193.738 80.011,193.366 79.729 C 193.243 79.635,193.038 78.986,192.909 78.287 C 192.780 77.587,192.529 77.014,192.351 77.014 C 192.173 77.014,192.027 76.785,192.027 76.506 C 192.027 76.226,191.894 75.997,191.731 75.997 C 191.568 75.997,191.338 75.386,191.218 74.640 C 191.099 73.893,190.864 73.282,190.696 73.282 C 190.528 73.282,190.287 72.672,190.161 71.925 C 190.035 71.179,189.793 70.568,189.622 70.568 C 189.452 70.568,189.313 70.263,189.313 69.890 C 189.313 69.517,189.162 69.211,188.978 69.211 C 188.793 69.211,188.545 68.601,188.425 67.854 C 188.306 67.108,188.087 66.497,187.939 66.497 C 187.792 66.497,187.570 66.039,187.447 65.479 C 187.324 64.919,187.083 64.461,186.911 64.461 C 186.739 64.461,186.599 64.080,186.599 63.613 C 186.599 63.147,186.448 62.765,186.264 62.765 C 186.079 62.765,185.831 62.154,185.711 61.408 C 185.592 60.662,185.361 60.051,185.198 60.051 C 185.036 60.051,184.902 59.822,184.902 59.542 C 184.902 59.262,184.763 59.033,184.593 59.033 C 184.423 59.033,184.180 58.422,184.054 57.676 C 183.928 56.930,183.703 56.319,183.553 56.319 C 183.404 56.319,183.181 55.785,183.059 55.131 C 182.936 54.478,182.690 53.944,182.512 53.944 C 182.334 53.944,182.188 53.562,182.188 53.096 C 182.188 52.629,182.048 52.248,181.876 52.248 C 181.704 52.248,181.463 51.790,181.340 51.230 C 181.217 50.670,180.996 50.212,180.848 50.212 C 180.700 50.212,180.481 49.601,180.362 48.855 C 180.242 48.109,179.994 47.498,179.809 47.498 C 179.625 47.498,179.474 47.269,179.474 46.989 C 179.474 46.709,179.321 46.480,179.135 46.480 C 178.948 46.480,178.795 46.137,178.793 45.717 C 178.792 45.297,178.563 44.516,178.285 43.982 C 178.006 43.447,177.778 42.798,177.778 42.540 C 177.778 42.281,177.642 42.070,177.476 42.070 C 177.310 42.070,177.075 41.535,176.952 40.882 C 176.829 40.229,176.603 39.695,176.449 39.695 C 176.294 39.695,176.070 39.084,175.951 38.338 C 175.832 37.591,175.583 36.980,175.399 36.980 C 175.214 36.980,175.064 36.751,175.064 36.472 C 175.064 36.192,174.930 35.963,174.768 35.963 C 174.605 35.963,174.374 35.352,174.255 34.606 C 174.135 33.859,173.889 33.249,173.707 33.249 C 173.524 33.249,173.278 32.638,173.158 31.891 C 173.039 31.145,172.808 30.534,172.645 30.534 C 172.483 30.534,172.349 30.229,172.349 29.856 C 172.349 29.483,172.199 29.177,172.014 29.177 C 171.830 29.177,171.581 28.567,171.462 27.820 C 171.343 27.074,171.112 26.463,170.949 26.463 C 170.786 26.463,170.653 26.234,170.653 25.954 C 170.653 25.674,170.520 25.445,170.357 25.445 C 170.194 25.445,169.964 24.835,169.844 24.088 C 169.725 23.342,169.489 22.731,169.319 22.731 C 169.149 22.731,168.910 22.273,168.787 21.713 C 168.664 21.154,168.423 20.696,168.251 20.696 C 168.079 20.696,167.939 20.390,167.939 20.017 C 167.939 19.644,167.798 19.338,167.627 19.338 C 167.455 19.338,167.214 18.880,167.091 18.321 C 166.968 17.761,166.743 17.303,166.592 17.303 C 166.440 17.303,166.220 16.921,166.103 16.455 C 165.986 15.988,165.741 15.606,165.558 15.606 C 165.375 15.606,165.225 15.434,165.225 15.222 C 165.225 15.011,164.690 14.334,164.037 13.718 C 163.384 13.103,162.850 12.451,162.850 12.271 C 162.850 11.866,159.569 8.482,159.176 8.482 C 159.020 8.482,158.446 8.028,157.902 7.473 C 157.358 6.919,156.656 6.461,156.342 6.456 C 156.028 6.450,155.676 6.146,155.559 5.779 C 155.425 5.357,154.920 5.032,154.179 4.893 C 153.537 4.773,153.011 4.551,153.011 4.400 C 153.011 4.249,152.553 4.025,151.993 3.902 C 151.433 3.779,150.975 3.538,150.975 3.366 C 150.975 3.194,150.746 3.053,150.466 3.053 C 150.187 3.053,149.958 2.914,149.958 2.744 C 149.958 2.574,149.347 2.331,148.601 2.205 C 147.854 2.079,147.243 1.837,147.243 1.667 C 147.243 1.496,146.862 1.357,146.395 1.357 C 145.929 1.357,145.547 1.229,145.547 1.072 C 145.547 0.212,132.971 -0.282,127.437 0.360 M247.078 339.175 C 247.594 339.253,248.358 339.251,248.775 339.170 C 249.192 339.090,248.770 339.026,247.837 339.028 C 246.904 339.031,246.563 339.097,247.078 339.175 " stroke="none" fill="#fbc304" fill-rule="evenodd"></path><path id="path1" d="M355.895 0.398 C 354.682 0.571,353.545 0.858,353.367 1.035 C 353.190 1.212,352.694 1.357,352.265 1.357 C 351.835 1.357,351.484 1.490,351.484 1.653 C 351.484 1.816,350.874 2.047,350.127 2.166 C 349.381 2.285,348.770 2.534,348.770 2.718 C 348.770 2.903,348.541 3.053,348.261 3.053 C 347.981 3.053,347.752 3.199,347.752 3.377 C 347.752 3.555,347.218 3.801,346.565 3.924 C 345.912 4.047,345.377 4.270,345.377 4.421 C 345.377 4.572,344.952 4.789,344.432 4.904 C 343.912 5.018,343.203 5.488,342.858 5.948 C 342.512 6.409,342.046 6.785,341.822 6.785 C 341.598 6.785,340.850 7.396,340.160 8.142 C 339.469 8.889,338.717 9.500,338.489 9.500 C 338.261 9.500,337.771 9.910,337.400 10.411 C 337.029 10.912,336.383 11.698,335.963 12.157 C 335.543 12.616,335.199 13.111,335.199 13.258 C 335.199 13.405,334.909 13.617,334.555 13.730 C 334.200 13.842,333.815 14.311,333.700 14.770 C 333.584 15.230,333.347 15.606,333.173 15.606 C 332.998 15.606,332.756 16.136,332.635 16.782 C 332.500 17.501,332.169 18.036,331.783 18.159 C 331.398 18.281,331.066 18.815,330.932 19.527 C 330.812 20.170,330.578 20.696,330.412 20.696 C 330.246 20.696,330.110 20.992,330.110 21.354 C 330.110 21.716,329.969 22.100,329.797 22.206 C 329.625 22.313,329.384 22.856,329.261 23.414 C 329.139 23.971,328.918 24.427,328.770 24.427 C 328.622 24.427,328.403 25.038,328.284 25.785 C 328.164 26.531,327.953 27.142,327.814 27.142 C 327.521 27.142,326.856 28.592,326.530 29.941 C 326.406 30.454,326.182 30.874,326.032 30.874 C 325.882 30.874,325.656 31.484,325.530 32.231 C 325.404 32.977,325.162 33.588,324.991 33.588 C 324.821 33.588,324.682 33.893,324.682 34.266 C 324.682 34.640,324.536 34.945,324.358 34.945 C 324.180 34.945,323.929 35.517,323.800 36.217 C 323.672 36.917,323.474 37.566,323.361 37.659 C 322.875 38.060,321.968 40.027,321.968 40.680 C 321.968 41.071,321.822 41.391,321.644 41.391 C 321.466 41.391,321.215 41.964,321.086 42.663 C 320.957 43.363,320.752 44.012,320.629 44.105 C 320.257 44.388,319.254 46.715,319.254 47.295 C 319.254 47.593,319.118 47.837,318.952 47.837 C 318.786 47.837,318.550 48.372,318.428 49.025 C 318.305 49.678,318.059 50.212,317.881 50.212 C 317.703 50.212,317.557 50.594,317.557 51.060 C 317.557 51.527,317.417 51.908,317.245 51.908 C 317.073 51.908,316.832 52.366,316.709 52.926 C 316.586 53.486,316.345 53.944,316.173 53.944 C 316.001 53.944,315.861 54.326,315.861 54.792 C 315.861 55.259,315.708 55.640,315.522 55.640 C 315.335 55.640,315.181 55.831,315.180 56.064 C 315.179 56.298,314.956 56.915,314.684 57.436 C 314.412 57.957,314.091 58.911,313.970 59.556 C 313.849 60.202,313.614 60.729,313.448 60.729 C 313.282 60.729,313.147 61.035,313.147 61.408 C 313.147 61.781,313.011 62.087,312.845 62.087 C 312.679 62.087,312.443 62.621,312.321 63.274 C 312.198 63.927,311.972 64.461,311.818 64.461 C 311.663 64.461,311.439 65.072,311.320 65.818 C 311.201 66.565,310.952 67.176,310.768 67.176 C 310.583 67.176,310.433 67.405,310.433 67.684 C 310.433 67.964,310.299 68.193,310.137 68.193 C 309.974 68.193,309.743 68.804,309.624 69.550 C 309.504 70.297,309.274 70.908,309.111 70.908 C 308.949 70.908,308.531 71.822,308.182 72.940 C 307.834 74.058,307.436 74.974,307.298 74.976 C 307.161 74.977,306.950 75.589,306.831 76.336 C 306.712 77.082,306.481 77.693,306.318 77.693 C 306.155 77.693,306.022 77.922,306.022 78.202 C 306.022 78.482,305.889 78.711,305.726 78.711 C 305.563 78.711,305.333 79.321,305.213 80.068 C 305.094 80.814,304.852 81.425,304.676 81.425 C 304.500 81.425,304.251 81.997,304.123 82.697 C 303.994 83.397,303.796 84.046,303.683 84.139 C 303.197 84.540,302.290 86.508,302.290 87.160 C 302.290 87.551,302.137 87.871,301.951 87.871 C 301.764 87.871,301.612 88.147,301.612 88.485 C 301.612 88.822,301.387 89.395,301.113 89.757 C 300.839 90.119,300.610 90.759,300.605 91.179 C 300.599 91.599,300.453 91.942,300.281 91.942 C 300.110 91.942,299.868 92.400,299.746 92.960 C 299.623 93.520,299.381 93.978,299.210 93.978 C 299.038 93.978,298.897 94.360,298.897 94.826 C 298.897 95.293,298.745 95.674,298.558 95.674 C 298.372 95.674,298.218 95.865,298.217 96.098 C 298.216 96.332,298.001 96.932,297.740 97.433 C 297.479 97.933,297.162 98.811,297.036 99.383 C 296.911 99.956,296.667 100.424,296.496 100.424 C 296.324 100.424,296.183 100.797,296.183 101.252 C 296.183 101.708,296.042 102.167,295.870 102.274 C 295.698 102.380,295.457 102.924,295.334 103.481 C 295.212 104.039,294.990 104.495,294.843 104.495 C 294.695 104.495,294.476 105.106,294.357 105.852 C 294.237 106.599,293.989 107.209,293.804 107.209 C 293.620 107.209,293.469 107.439,293.469 107.718 C 293.469 107.998,293.336 108.227,293.173 108.227 C 293.010 108.227,292.780 108.838,292.660 109.584 C 292.541 110.331,292.330 110.941,292.191 110.941 C 291.898 110.941,291.233 112.392,290.907 113.740 C 290.783 114.254,290.555 114.673,290.400 114.673 C 290.245 114.673,290.015 115.360,289.889 116.200 C 289.763 117.040,289.525 117.727,289.359 117.727 C 289.194 117.727,289.059 117.956,289.059 118.236 C 289.059 118.516,288.925 118.745,288.763 118.745 C 288.600 118.745,288.369 119.355,288.250 120.102 C 288.130 120.848,287.884 121.459,287.701 121.459 C 287.519 121.459,287.273 122.070,287.153 122.816 C 287.034 123.562,286.803 124.173,286.640 124.173 C 286.478 124.173,286.344 124.402,286.344 124.682 C 286.344 124.962,286.199 125.191,286.020 125.191 C 285.842 125.191,285.591 125.763,285.463 126.463 C 285.334 127.163,285.128 127.812,285.005 127.905 C 284.583 128.226,283.630 130.553,283.630 131.264 C 283.630 131.656,283.490 131.976,283.318 131.976 C 283.146 131.976,282.905 132.434,282.782 132.994 C 282.659 133.554,282.418 134.012,282.246 134.012 C 282.074 134.012,281.934 134.394,281.934 134.860 C 281.934 135.327,281.788 135.708,281.610 135.708 C 281.432 135.708,281.181 136.281,281.052 136.980 C 280.923 137.680,280.726 138.329,280.613 138.423 C 280.168 138.790,279.220 140.888,279.220 141.503 C 279.220 141.861,279.084 142.154,278.918 142.154 C 278.752 142.154,278.516 142.689,278.394 143.342 C 278.271 143.995,278.025 144.529,277.847 144.529 C 277.669 144.529,277.523 144.911,277.523 145.377 C 277.523 145.844,277.383 146.226,277.211 146.226 C 277.039 146.226,276.798 146.684,276.675 147.243 C 276.552 147.803,276.331 148.261,276.183 148.261 C 276.035 148.261,275.816 148.872,275.697 149.618 C 275.577 150.365,275.329 150.975,275.144 150.975 C 274.960 150.975,274.809 151.204,274.809 151.484 C 274.809 151.764,274.676 151.993,274.513 151.993 C 274.351 151.993,274.120 152.604,274.000 153.350 C 273.881 154.097,273.632 154.707,273.448 154.707 C 273.264 154.707,273.113 155.008,273.113 155.374 C 273.113 156.029,272.124 158.445,271.720 158.779 C 271.607 158.872,271.409 159.521,271.280 160.221 C 271.152 160.920,270.901 161.493,270.723 161.493 C 270.544 161.493,270.399 161.722,270.399 162.002 C 270.399 162.282,270.265 162.511,270.103 162.511 C 269.940 162.511,269.709 163.121,269.590 163.868 C 269.470 164.614,269.224 165.225,269.042 165.225 C 268.859 165.225,268.613 165.835,268.493 166.582 C 268.374 167.328,268.143 167.939,267.980 167.939 C 267.818 167.939,267.684 168.168,267.684 168.448 C 267.684 168.728,267.545 168.957,267.375 168.957 C 267.205 168.957,266.962 169.567,266.836 170.314 C 266.710 171.060,266.485 171.671,266.335 171.671 C 266.186 171.671,265.963 172.205,265.841 172.858 C 265.718 173.511,265.472 174.046,265.294 174.046 C 265.116 174.046,264.970 174.427,264.970 174.894 C 264.970 175.360,264.819 175.742,264.635 175.742 C 264.451 175.742,264.202 176.353,264.083 177.099 C 263.963 177.846,263.733 178.456,263.570 178.456 C 263.407 178.456,263.274 178.685,263.274 178.965 C 263.274 179.245,263.123 179.474,262.939 179.474 C 262.754 179.474,262.506 180.085,262.386 180.831 C 262.267 181.578,262.043 182.188,261.889 182.188 C 261.735 182.188,261.508 182.723,261.386 183.376 C 261.263 184.029,261.027 184.563,260.861 184.563 C 260.695 184.563,260.560 184.945,260.560 185.411 C 260.560 185.878,260.419 186.260,260.247 186.260 C 260.076 186.260,259.835 186.718,259.712 187.277 C 259.589 187.837,259.367 188.295,259.219 188.295 C 259.071 188.295,258.853 188.906,258.733 189.652 C 258.614 190.399,258.403 191.009,258.264 191.009 C 257.971 191.009,257.305 192.460,256.980 193.808 C 256.856 194.321,256.618 194.741,256.452 194.741 C 256.285 194.741,256.144 195.085,256.138 195.505 C 256.133 195.925,255.904 196.564,255.630 196.927 C 255.356 197.289,255.131 197.861,255.131 198.199 C 255.131 198.536,254.998 198.813,254.836 198.813 C 254.673 198.813,254.442 199.423,254.323 200.170 C 254.203 200.916,253.955 201.527,253.770 201.527 C 253.586 201.527,253.435 201.756,253.435 202.036 C 253.435 202.316,253.302 202.545,253.139 202.545 C 252.976 202.545,252.746 203.155,252.626 203.902 C 252.507 204.648,252.260 205.259,252.078 205.259 C 251.896 205.259,251.649 205.869,251.530 206.616 C 251.410 207.362,251.180 207.973,251.017 207.973 C 250.854 207.973,250.721 208.202,250.721 208.482 C 250.721 208.762,250.595 208.991,250.441 208.991 C 250.288 208.991,249.915 210.126,249.614 211.513 C 249.313 212.901,248.696 214.848,248.243 215.839 C 247.503 217.456,246.719 219.270,245.189 222.901 C 243.792 226.215,242.461 229.281,242.036 230.162 C 241.774 230.704,241.561 231.300,241.561 231.486 C 241.561 231.672,241.200 232.602,240.758 233.554 C 239.781 235.662,237.929 239.938,236.004 244.529 C 235.515 245.696,234.714 247.604,234.225 248.770 C 233.736 249.936,233.141 251.349,232.902 251.908 C 232.663 252.468,231.983 254.071,231.390 255.471 C 230.796 256.870,230.024 258.626,229.672 259.372 C 229.321 260.119,228.510 262.027,227.871 263.613 C 226.636 266.678,225.554 269.241,224.793 270.908 C 224.537 271.467,224.023 272.689,223.650 273.622 C 222.803 275.742,220.960 280.075,220.331 281.425 C 213.844 295.347,212.930 304.084,216.779 315.352 C 221.866 330.244,238.127 340.229,255.131 338.902 C 257.651 338.705,259.763 338.403,259.825 338.229 C 259.887 338.055,260.307 337.913,260.758 337.913 C 261.209 337.913,261.578 337.775,261.578 337.606 C 261.578 337.437,262.341 337.194,263.274 337.065 C 264.207 336.937,264.970 336.694,264.970 336.525 C 264.970 336.355,265.199 336.217,265.479 336.217 C 265.759 336.217,265.988 336.064,265.988 335.878 C 265.988 335.691,266.149 335.539,266.346 335.539 C 267.008 335.539,269.720 334.168,269.720 333.834 C 269.720 333.652,270.025 333.503,270.399 333.503 C 270.772 333.503,271.077 333.346,271.077 333.153 C 271.077 332.961,271.344 332.702,271.671 332.578 C 271.997 332.455,272.450 332.192,272.677 331.995 C 273.756 331.058,274.117 330.789,274.296 330.789 C 274.658 330.789,278.541 326.754,278.541 326.379 C 278.541 326.174,278.923 325.653,279.389 325.221 C 279.856 324.788,280.237 324.261,280.237 324.049 C 280.237 323.837,280.380 323.664,280.554 323.664 C 280.728 323.664,280.979 323.321,281.111 322.901 C 281.244 322.481,281.626 321.899,281.960 321.608 C 282.294 321.317,282.670 320.669,282.796 320.166 C 282.922 319.664,283.149 319.254,283.301 319.254 C 283.452 319.254,283.677 318.796,283.800 318.236 C 283.923 317.676,284.164 317.218,284.336 317.218 C 284.507 317.218,284.648 316.836,284.648 316.370 C 284.648 315.903,284.784 315.522,284.950 315.522 C 285.115 315.522,285.351 314.987,285.474 314.334 C 285.596 313.681,285.823 313.147,285.977 313.147 C 286.131 313.147,286.355 312.536,286.475 311.790 C 286.594 311.043,286.843 310.433,287.027 310.433 C 287.211 310.433,287.362 310.204,287.362 309.924 C 287.362 309.644,287.495 309.415,287.658 309.415 C 287.821 309.415,288.052 308.804,288.171 308.058 C 288.290 307.311,288.502 306.701,288.640 306.701 C 288.933 306.701,289.599 305.250,289.925 303.902 C 290.048 303.388,290.269 302.969,290.414 302.969 C 290.559 302.969,290.781 302.282,290.907 301.442 C 291.033 300.602,291.279 299.915,291.454 299.915 C 291.629 299.915,291.773 299.686,291.773 299.406 C 291.773 299.126,291.906 298.897,292.069 298.897 C 292.231 298.897,292.462 298.287,292.582 297.540 C 292.701 296.794,292.948 296.183,293.130 296.183 C 293.312 296.183,293.559 295.573,293.678 294.826 C 293.797 294.080,294.028 293.469,294.191 293.469 C 294.354 293.469,294.487 293.240,294.487 292.960 C 294.487 292.680,294.633 292.451,294.811 292.451 C 294.989 292.451,295.240 291.879,295.369 291.179 C 295.497 290.479,295.703 289.830,295.826 289.737 C 296.248 289.416,297.201 287.089,297.201 286.378 C 297.201 285.986,297.352 285.666,297.536 285.666 C 297.721 285.666,297.969 285.055,298.089 284.309 C 298.208 283.562,298.439 282.952,298.601 282.952 C 298.764 282.952,298.897 282.723,298.897 282.443 C 298.897 282.163,299.048 281.934,299.233 281.934 C 299.417 281.934,299.666 281.323,299.785 280.577 C 299.904 279.830,300.123 279.220,300.271 279.220 C 300.419 279.220,300.640 278.762,300.763 278.202 C 300.886 277.642,301.127 277.184,301.299 277.184 C 301.471 277.184,301.612 276.802,301.612 276.336 C 301.612 275.869,301.757 275.488,301.935 275.488 C 302.114 275.488,302.360 274.953,302.482 274.300 C 302.605 273.647,302.841 273.113,303.006 273.113 C 303.172 273.113,303.308 272.731,303.308 272.265 C 303.308 271.798,303.448 271.416,303.620 271.416 C 303.792 271.416,304.033 270.958,304.156 270.399 C 304.279 269.839,304.501 269.381,304.649 269.381 C 304.796 269.381,305.015 268.770,305.135 268.024 C 305.254 267.277,305.502 266.667,305.687 266.667 C 305.871 266.667,306.022 266.438,306.022 266.158 C 306.022 265.878,306.155 265.649,306.318 265.649 C 306.481 265.649,306.712 265.038,306.831 264.292 C 306.950 263.545,307.179 262.935,307.340 262.935 C 307.500 262.935,307.729 262.324,307.849 261.578 C 307.968 260.831,308.217 260.221,308.401 260.221 C 308.585 260.221,308.736 259.915,308.736 259.542 C 308.736 259.169,308.869 258.863,309.032 258.863 C 309.195 258.863,309.426 258.253,309.545 257.506 C 309.664 256.760,309.913 256.149,310.097 256.149 C 310.282 256.149,310.433 255.920,310.433 255.640 C 310.433 255.360,310.566 255.131,310.728 255.131 C 310.891 255.131,311.122 254.521,311.241 253.774 C 311.361 253.028,311.607 252.417,311.790 252.417 C 311.972 252.417,312.219 251.807,312.338 251.060 C 312.457 250.314,312.688 249.703,312.851 249.703 C 313.014 249.703,313.147 249.474,313.147 249.194 C 313.147 248.914,313.286 248.685,313.456 248.685 C 313.626 248.685,313.869 248.075,313.995 247.328 C 314.121 246.582,314.354 245.971,314.513 245.971 C 314.672 245.971,314.905 245.284,315.030 244.444 C 315.156 243.605,315.395 242.918,315.560 242.918 C 315.726 242.918,315.861 242.689,315.861 242.409 C 315.861 242.129,316.012 241.900,316.196 241.900 C 316.381 241.900,316.629 241.289,316.748 240.543 C 316.868 239.796,317.099 239.186,317.261 239.186 C 317.424 239.186,317.557 238.957,317.557 238.677 C 317.557 238.397,317.708 238.168,317.893 238.168 C 318.077 238.168,318.325 237.557,318.445 236.811 C 318.564 236.064,318.788 235.454,318.942 235.454 C 319.097 235.454,319.323 234.919,319.446 234.266 C 319.568 233.613,319.804 233.079,319.970 233.079 C 320.136 233.079,320.271 232.783,320.271 232.420 C 320.271 232.058,320.412 231.675,320.585 231.568 C 320.757 231.462,320.998 230.918,321.120 230.361 C 321.243 229.803,321.464 229.347,321.612 229.347 C 321.760 229.347,321.979 228.736,322.098 227.990 C 322.217 227.243,322.466 226.633,322.650 226.633 C 322.835 226.633,322.986 226.251,322.986 225.785 C 322.986 225.318,323.126 224.936,323.298 224.936 C 323.470 224.936,323.711 224.478,323.834 223.919 C 323.957 223.359,324.198 222.901,324.370 222.901 C 324.541 222.901,324.682 222.519,324.682 222.053 C 324.682 221.586,324.828 221.204,325.006 221.204 C 325.184 221.204,325.430 220.670,325.552 220.017 C 325.675 219.364,325.898 218.830,326.047 218.830 C 326.196 218.830,326.422 218.219,326.548 217.472 C 326.674 216.726,326.916 216.115,327.087 216.115 C 327.257 216.115,327.396 215.886,327.396 215.606 C 327.396 215.327,327.529 215.098,327.692 215.098 C 327.855 215.098,328.086 214.487,328.205 213.740 C 328.324 212.994,328.571 212.383,328.753 212.383 C 328.935 212.383,329.182 211.773,329.301 211.026 C 329.421 210.280,329.652 209.669,329.814 209.669 C 329.977 209.669,330.110 209.440,330.110 209.160 C 330.110 208.880,330.243 208.651,330.406 208.651 C 330.569 208.651,330.800 208.041,330.919 207.294 C 331.038 206.548,331.287 205.937,331.471 205.937 C 331.656 205.937,331.807 205.632,331.807 205.259 C 331.807 204.885,331.946 204.580,332.116 204.580 C 332.286 204.580,332.529 203.969,332.655 203.223 C 332.781 202.477,333.022 201.866,333.190 201.866 C 333.358 201.866,333.593 201.255,333.712 200.509 C 333.831 199.763,334.062 199.152,334.225 199.152 C 334.388 199.152,334.521 198.923,334.521 198.643 C 334.521 198.363,334.672 198.134,334.856 198.134 C 335.040 198.134,335.289 197.523,335.408 196.777 C 335.528 196.031,335.752 195.420,335.906 195.420 C 336.060 195.420,336.287 194.885,336.409 194.232 C 336.532 193.579,336.768 193.045,336.933 193.045 C 337.099 193.045,337.235 192.740,337.235 192.366 C 337.235 191.993,337.371 191.688,337.536 191.688 C 337.702 191.688,337.938 191.154,338.061 190.500 C 338.183 189.847,338.429 189.313,338.607 189.313 C 338.786 189.313,338.931 188.931,338.931 188.465 C 338.931 187.998,339.082 187.617,339.267 187.617 C 339.451 187.617,339.699 187.006,339.819 186.260 C 339.938 185.513,340.157 184.902,340.305 184.902 C 340.453 184.902,340.674 184.444,340.797 183.885 C 340.920 183.325,341.161 182.867,341.333 182.867 C 341.505 182.867,341.645 182.485,341.645 182.019 C 341.645 181.552,341.791 181.170,341.969 181.170 C 342.148 181.170,342.394 180.636,342.516 179.983 C 342.639 179.330,342.861 178.796,343.010 178.796 C 343.160 178.796,343.385 178.185,343.511 177.439 C 343.638 176.692,343.880 176.081,344.050 176.081 C 344.220 176.081,344.360 175.852,344.360 175.573 C 344.360 175.293,344.493 175.064,344.656 175.064 C 344.818 175.064,345.049 174.453,345.168 173.707 C 345.288 172.960,345.499 172.349,345.638 172.349 C 345.931 172.349,346.596 170.899,346.922 169.550 C 347.046 169.037,347.264 168.617,347.406 168.617 C 347.549 168.617,347.763 168.007,347.883 167.260 C 348.002 166.514,348.250 165.903,348.435 165.903 C 348.619 165.903,348.770 165.598,348.770 165.225 C 348.770 164.852,348.909 164.546,349.080 164.546 C 349.250 164.546,349.492 163.936,349.618 163.189 C 349.744 162.443,349.985 161.832,350.153 161.832 C 350.321 161.832,350.556 161.221,350.675 160.475 C 350.795 159.729,351.026 159.118,351.188 159.118 C 351.351 159.118,351.484 158.889,351.484 158.609 C 351.484 158.329,351.635 158.100,351.820 158.100 C 352.004 158.100,352.252 157.489,352.372 156.743 C 352.491 155.997,352.722 155.386,352.885 155.386 C 353.048 155.386,353.181 155.157,353.181 154.877 C 353.181 154.597,353.332 154.368,353.516 154.368 C 353.700 154.368,353.949 153.757,354.068 153.011 C 354.188 152.265,354.405 151.654,354.551 151.654 C 354.698 151.654,354.921 151.043,355.047 150.297 C 355.173 149.550,355.415 148.940,355.585 148.940 C 355.756 148.940,355.895 148.634,355.895 148.261 C 355.895 147.888,356.046 147.583,356.230 147.583 C 356.414 147.583,356.663 146.972,356.782 146.226 C 356.902 145.479,357.120 144.869,357.268 144.869 C 357.416 144.869,357.638 144.411,357.761 143.851 C 357.884 143.291,358.125 142.833,358.297 142.833 C 358.468 142.833,358.609 142.451,358.609 141.985 C 358.609 141.518,358.750 141.137,358.921 141.137 C 359.093 141.137,359.334 140.679,359.457 140.119 C 359.580 139.559,359.821 139.101,359.993 139.101 C 360.165 139.101,360.305 138.728,360.305 138.273 C 360.305 137.817,360.446 137.358,360.619 137.251 C 360.791 137.145,361.032 136.601,361.154 136.044 C 361.277 135.486,361.498 135.030,361.646 135.030 C 361.794 135.030,362.013 134.419,362.132 133.673 C 362.251 132.926,362.500 132.316,362.684 132.316 C 362.869 132.316,363.020 131.934,363.020 131.467 C 363.020 131.001,363.160 130.619,363.332 130.619 C 363.504 130.619,363.745 130.161,363.868 129.601 C 363.991 129.042,364.212 128.584,364.360 128.584 C 364.508 128.584,364.727 127.973,364.846 127.226 C 364.965 126.480,365.177 125.869,365.316 125.869 C 365.646 125.869,366.338 124.288,366.616 122.898 C 366.737 122.293,366.970 121.798,367.133 121.798 C 367.296 121.798,367.430 121.569,367.430 121.289 C 367.430 121.009,367.563 120.780,367.726 120.780 C 367.889 120.780,368.119 120.170,368.239 119.423 C 368.358 118.677,368.605 118.066,368.787 118.066 C 368.969 118.066,369.216 117.455,369.335 116.709 C 369.455 115.963,369.686 115.352,369.848 115.352 C 370.011 115.352,370.144 115.123,370.144 114.843 C 370.144 114.563,370.295 114.334,370.479 114.334 C 370.664 114.334,370.912 113.723,371.032 112.977 C 371.151 112.231,371.380 111.620,371.541 111.620 C 371.701 111.620,371.930 111.009,372.050 110.263 C 372.169 109.517,372.400 108.906,372.562 108.906 C 372.725 108.906,372.858 108.601,372.858 108.227 C 372.858 107.854,373.009 107.549,373.194 107.549 C 373.378 107.549,373.627 106.938,373.746 106.192 C 373.865 105.445,374.096 104.835,374.259 104.835 C 374.422 104.835,374.555 104.606,374.555 104.326 C 374.555 104.046,374.706 103.817,374.890 103.817 C 375.074 103.817,375.323 103.206,375.442 102.460 C 375.562 101.713,375.780 101.103,375.928 101.103 C 376.076 101.103,376.298 100.645,376.421 100.085 C 376.544 99.525,376.785 99.067,376.957 99.067 C 377.128 99.067,377.269 98.685,377.269 98.219 C 377.269 97.752,377.415 97.371,377.593 97.371 C 377.771 97.371,378.017 96.836,378.139 96.183 C 378.262 95.530,378.478 94.996,378.620 94.996 C 378.762 94.996,378.976 94.385,379.096 93.639 C 379.215 92.892,379.463 92.282,379.648 92.282 C 379.832 92.282,379.983 91.900,379.983 91.433 C 379.983 90.967,380.124 90.585,380.295 90.585 C 380.467 90.585,380.708 90.127,380.831 89.567 C 380.954 89.008,381.195 88.550,381.367 88.550 C 381.539 88.550,381.679 88.168,381.679 87.701 C 381.679 87.235,381.820 86.853,381.992 86.853 C 382.163 86.853,382.405 86.395,382.528 85.835 C 382.651 85.276,382.872 84.818,383.020 84.818 C 383.168 84.818,383.387 84.207,383.506 83.461 C 383.625 82.714,383.874 82.103,384.058 82.103 C 384.243 82.103,384.394 81.798,384.394 81.425 C 384.394 81.052,384.527 80.746,384.689 80.746 C 384.852 80.746,385.083 80.136,385.202 79.389 C 385.322 78.643,385.568 78.032,385.751 78.032 C 385.933 78.032,386.180 77.422,386.299 76.675 C 386.418 75.929,386.649 75.318,386.812 75.318 C 386.975 75.318,387.108 75.089,387.108 74.809 C 387.108 74.529,387.241 74.300,387.404 74.300 C 387.566 74.300,387.797 73.690,387.917 72.943 C 388.036 72.197,388.247 71.586,388.386 71.586 C 388.679 71.586,389.344 70.136,389.670 68.787 C 389.794 68.274,390.022 67.854,390.177 67.854 C 390.332 67.854,390.562 67.167,390.688 66.327 C 390.814 65.488,391.052 64.801,391.217 64.801 C 391.383 64.801,391.518 64.572,391.518 64.292 C 391.518 64.012,391.669 63.783,391.853 63.783 C 392.038 63.783,392.286 63.172,392.406 62.426 C 392.525 61.679,392.744 61.069,392.892 61.069 C 393.040 61.069,393.261 60.611,393.384 60.051 C 393.507 59.491,393.748 59.033,393.920 59.033 C 394.092 59.033,394.232 58.651,394.232 58.185 C 394.232 57.718,394.378 57.337,394.556 57.337 C 394.734 57.337,394.980 56.802,395.103 56.149 C 395.225 55.496,395.461 54.962,395.627 54.962 C 395.793 54.962,395.929 54.750,395.929 54.492 C 395.929 54.233,396.157 53.584,396.436 53.050 C 396.714 52.515,396.943 51.735,396.944 51.315 C 396.946 50.895,397.097 50.551,397.282 50.551 C 397.466 50.551,397.715 49.941,397.834 49.194 C 397.953 48.448,398.184 47.837,398.347 47.837 C 398.510 47.837,398.643 47.562,398.643 47.226 C 398.643 46.891,398.785 46.471,398.958 46.293 C 400.217 45.005,400.216 26.634,398.957 26.180 C 398.784 26.118,398.643 25.698,398.643 25.247 C 398.643 24.796,398.510 24.427,398.347 24.427 C 398.184 24.427,397.953 23.817,397.834 23.070 C 397.715 22.324,397.486 21.713,397.326 21.713 C 397.166 21.713,396.946 21.165,396.838 20.495 C 396.729 19.825,396.349 19.023,395.994 18.714 C 395.638 18.404,395.227 17.769,395.081 17.303 C 394.934 16.836,394.530 16.208,394.184 15.906 C 393.837 15.604,393.554 15.196,393.554 14.999 C 393.554 14.802,393.096 14.183,392.536 13.623 C 391.976 13.063,391.518 12.504,391.518 12.380 C 391.518 12.076,387.938 8.482,387.635 8.482 C 387.503 8.482,386.937 8.024,386.377 7.464 C 385.817 6.904,385.176 6.446,384.951 6.446 C 384.727 6.446,384.327 6.146,384.063 5.780 C 383.799 5.414,383.155 5.020,382.631 4.905 C 382.108 4.790,381.679 4.572,381.679 4.420 C 381.679 4.269,381.298 4.049,380.831 3.932 C 380.365 3.815,379.983 3.569,379.983 3.386 C 379.983 3.203,379.601 3.053,379.135 3.053 C 378.668 3.053,378.287 2.903,378.287 2.718 C 378.287 2.534,377.676 2.285,376.930 2.166 C 376.183 2.047,375.573 1.816,375.573 1.653 C 375.573 1.490,375.191 1.357,374.724 1.357 C 374.258 1.357,373.876 1.224,373.876 1.062 C 373.876 0.170,360.863 -0.310,355.895 0.398 " stroke="none" fill="#94d354" fill-rule="evenodd"></path><path id="path2" d="M28.075 0.428 C 26.628 0.610,25.445 0.894,25.445 1.058 C 25.445 1.223,25.064 1.357,24.597 1.357 C 24.131 1.357,23.749 1.490,23.749 1.653 C 23.749 1.816,23.138 2.047,22.392 2.166 C 21.645 2.285,21.035 2.534,21.035 2.718 C 21.035 2.903,20.806 3.053,20.526 3.053 C 20.246 3.053,20.017 3.194,20.017 3.366 C 20.017 3.538,19.559 3.779,18.999 3.902 C 18.439 4.025,17.981 4.266,17.981 4.437 C 17.981 4.609,17.671 4.750,17.292 4.750 C 16.913 4.750,16.515 4.979,16.408 5.259 C 16.300 5.539,15.992 5.768,15.724 5.768 C 15.455 5.768,14.899 6.128,14.488 6.569 C 14.077 7.009,13.397 7.477,12.977 7.609 C 12.557 7.741,12.214 7.981,12.214 8.143 C 12.214 8.527,8.527 12.214,8.143 12.214 C 7.981 12.214,7.741 12.557,7.609 12.977 C 7.477 13.397,7.009 14.077,6.569 14.488 C 6.128 14.899,5.768 15.471,5.768 15.760 C 5.768 16.049,5.631 16.285,5.465 16.285 C 5.299 16.285,5.067 16.667,4.950 17.133 C 4.833 17.600,4.599 17.981,4.431 17.981 C 4.263 17.981,4.025 18.439,3.902 18.999 C 3.779 19.559,3.538 20.017,3.366 20.017 C 3.194 20.017,3.053 20.246,3.053 20.526 C 3.053 20.806,2.914 21.035,2.744 21.035 C 2.574 21.035,2.331 21.645,2.205 22.392 C 2.079 23.138,1.837 23.749,1.667 23.749 C 1.496 23.749,1.357 24.131,1.357 24.597 C 1.357 25.064,1.229 25.445,1.072 25.445 C -0.253 25.445,-0.280 46.283,1.045 46.763 C 1.217 46.825,1.357 47.245,1.357 47.696 C 1.357 48.147,1.490 48.516,1.653 48.516 C 1.816 48.516,2.047 49.126,2.166 49.873 C 2.285 50.619,2.534 51.230,2.718 51.230 C 2.903 51.230,3.053 51.612,3.053 52.078 C 3.053 52.545,3.204 52.926,3.389 52.926 C 3.573 52.926,3.822 53.537,3.941 54.283 C 4.060 55.030,4.279 55.640,4.427 55.640 C 4.575 55.640,4.796 56.098,4.919 56.658 C 5.042 57.218,5.284 57.676,5.455 57.676 C 5.627 57.676,5.768 58.058,5.768 58.524 C 5.768 58.991,5.903 59.372,6.069 59.372 C 6.235 59.372,6.471 59.907,6.593 60.560 C 6.716 61.213,6.942 61.747,7.097 61.747 C 7.251 61.747,7.475 62.358,7.594 63.104 C 7.714 63.851,7.962 64.461,8.147 64.461 C 8.331 64.461,8.482 64.690,8.482 64.970 C 8.482 65.250,8.615 65.479,8.778 65.479 C 8.940 65.479,9.171 66.090,9.291 66.836 C 9.410 67.583,9.627 68.193,9.773 68.193 C 9.918 68.193,10.323 69.033,10.672 70.059 C 11.021 71.086,11.434 71.925,11.590 71.925 C 11.747 71.925,11.874 72.246,11.874 72.637 C 11.874 73.348,12.827 75.675,13.250 75.997 C 13.373 76.090,13.578 76.739,13.707 77.439 C 13.836 78.138,14.085 78.711,14.261 78.711 C 14.437 78.711,14.678 79.321,14.798 80.068 C 14.917 80.814,15.148 81.425,15.311 81.425 C 15.473 81.425,15.606 81.654,15.606 81.934 C 15.606 82.214,15.757 82.443,15.942 82.443 C 16.126 82.443,16.375 83.053,16.494 83.800 C 16.613 84.546,16.844 85.157,17.007 85.157 C 17.170 85.157,17.303 85.386,17.303 85.666 C 17.303 85.946,17.464 86.175,17.662 86.175 C 17.860 86.175,17.931 86.321,17.820 86.500 C 17.710 86.679,17.764 87.099,17.941 87.433 C 18.519 88.522,19.338 90.511,19.338 90.823 C 19.338 91.337,20.171 92.955,20.437 92.957 C 20.575 92.959,20.785 93.571,20.904 94.317 C 21.024 95.064,21.243 95.674,21.390 95.674 C 21.538 95.674,21.760 96.132,21.883 96.692 C 22.006 97.252,22.247 97.710,22.419 97.710 C 22.591 97.710,22.731 98.092,22.731 98.558 C 22.731 99.025,22.877 99.406,23.055 99.406 C 23.233 99.406,23.479 99.941,23.602 100.594 C 23.724 101.247,23.960 101.781,24.126 101.781 C 24.292 101.781,24.427 102.074,24.427 102.432 C 24.427 103.048,25.376 105.146,25.820 105.513 C 25.933 105.606,26.131 106.255,26.260 106.955 C 26.389 107.655,26.640 108.227,26.818 108.227 C 26.996 108.227,27.142 108.456,27.142 108.736 C 27.142 109.016,27.275 109.245,27.438 109.245 C 27.600 109.245,27.831 109.856,27.950 110.602 C 28.070 111.349,28.299 111.959,28.459 111.959 C 28.620 111.959,28.849 112.570,28.968 113.316 C 29.088 114.063,29.336 114.673,29.521 114.673 C 29.705 114.673,29.856 114.979,29.856 115.352 C 29.856 115.725,29.989 116.031,30.152 116.031 C 30.314 116.031,30.545 116.641,30.665 117.388 C 30.784 118.134,31.016 118.745,31.180 118.745 C 31.344 118.745,31.597 119.165,31.742 119.678 C 31.887 120.191,32.039 120.687,32.079 120.780 C 32.119 120.874,32.264 121.293,32.401 121.713 C 32.537 122.133,32.782 122.477,32.945 122.477 C 33.107 122.477,33.338 123.087,33.458 123.834 C 33.577 124.580,33.808 125.191,33.970 125.191 C 34.133 125.191,34.266 125.420,34.266 125.700 C 34.266 125.980,34.406 126.209,34.576 126.209 C 34.746 126.209,34.988 126.819,35.115 127.566 C 35.241 128.312,35.464 128.923,35.611 128.923 C 35.758 128.923,35.977 129.418,36.098 130.023 C 36.372 131.393,37.067 132.994,37.387 132.994 C 37.520 132.994,37.734 133.567,37.862 134.266 C 37.991 134.966,38.189 135.615,38.302 135.708 C 38.746 136.076,39.695 138.174,39.695 138.789 C 39.695 139.147,39.835 139.440,40.007 139.440 C 40.179 139.440,40.419 139.896,40.542 140.454 C 40.664 141.012,40.906 141.555,41.078 141.662 C 41.250 141.768,41.391 142.151,41.391 142.514 C 41.391 142.876,41.527 143.172,41.693 143.172 C 41.858 143.172,42.094 143.707,42.217 144.360 C 42.339 145.013,42.566 145.547,42.720 145.547 C 42.874 145.547,43.098 146.158,43.218 146.904 C 43.337 147.651,43.586 148.261,43.770 148.261 C 43.954 148.261,44.105 148.643,44.105 149.109 C 44.105 149.576,44.246 149.958,44.417 149.958 C 44.589 149.958,44.830 150.416,44.953 150.975 C 45.076 151.535,45.298 151.993,45.446 151.993 C 45.594 151.993,45.812 152.604,45.932 153.350 C 46.051 154.097,46.300 154.707,46.484 154.707 C 46.668 154.707,46.819 155.013,46.819 155.386 C 46.819 155.759,46.959 156.064,47.129 156.064 C 47.299 156.064,47.541 156.675,47.668 157.422 C 47.794 158.168,48.036 158.779,48.206 158.779 C 48.376 158.779,48.516 159.008,48.516 159.288 C 48.516 159.567,48.649 159.796,48.812 159.796 C 48.974 159.796,49.205 160.407,49.325 161.154 C 49.444 161.900,49.691 162.511,49.873 162.511 C 50.055 162.511,50.302 163.121,50.421 163.868 C 50.540 164.614,50.771 165.225,50.934 165.225 C 51.097 165.225,51.230 165.454,51.230 165.734 C 51.230 166.014,51.363 166.243,51.526 166.243 C 51.689 166.243,51.919 166.853,52.039 167.600 C 52.158 168.346,52.393 168.957,52.561 168.957 C 52.729 168.957,52.970 169.567,53.096 170.314 C 53.222 171.060,53.464 171.671,53.635 171.671 C 53.805 171.671,53.944 171.976,53.944 172.349 C 53.944 172.723,54.095 173.028,54.279 173.028 C 54.464 173.028,54.712 173.639,54.832 174.385 C 54.951 175.131,55.182 175.742,55.344 175.742 C 55.507 175.742,55.640 175.971,55.640 176.251 C 55.640 176.531,55.791 176.760,55.976 176.760 C 56.160 176.760,56.409 177.371,56.528 178.117 C 56.647 178.863,56.866 179.474,57.014 179.474 C 57.162 179.474,57.383 179.930,57.506 180.488 C 57.628 181.046,57.869 181.589,58.041 181.696 C 58.214 181.802,58.355 182.185,58.355 182.548 C 58.355 182.910,58.490 183.206,58.656 183.206 C 58.822 183.206,59.058 183.740,59.180 184.394 C 59.303 185.047,59.549 185.581,59.727 185.581 C 59.905 185.581,60.051 185.934,60.051 186.364 C 60.051 186.795,60.275 187.444,60.549 187.806 C 60.823 188.168,61.052 188.808,61.058 189.228 C 61.064 189.648,61.209 189.992,61.381 189.992 C 61.553 189.992,61.794 190.450,61.917 191.009 C 62.040 191.569,62.281 192.027,62.453 192.027 C 62.625 192.027,62.765 192.409,62.765 192.875 C 62.765 193.342,62.906 193.723,63.077 193.723 C 63.249 193.723,63.490 194.180,63.612 194.737 C 63.735 195.295,63.976 195.838,64.148 195.945 C 64.320 196.051,64.461 196.374,64.461 196.661 C 64.461 197.225,65.471 199.553,65.837 199.830 C 65.959 199.924,66.165 200.573,66.294 201.272 C 66.423 201.972,66.642 202.545,66.781 202.545 C 66.921 202.545,67.320 203.384,67.669 204.411 C 68.018 205.437,68.412 206.277,68.544 206.277 C 68.677 206.277,68.883 206.887,69.002 207.634 C 69.122 208.380,69.370 208.991,69.554 208.991 C 69.739 208.991,69.890 209.296,69.890 209.669 C 69.890 210.042,70.029 210.348,70.199 210.348 C 70.369 210.348,70.612 210.958,70.738 211.705 C 70.864 212.451,71.105 213.062,71.273 213.062 C 71.441 213.062,71.676 213.673,71.795 214.419 C 71.914 215.165,72.145 215.776,72.308 215.776 C 72.471 215.776,72.604 216.005,72.604 216.285 C 72.604 216.565,72.755 216.794,72.939 216.794 C 73.124 216.794,73.372 217.405,73.491 218.151 C 73.611 218.897,73.829 219.508,73.977 219.508 C 74.125 219.508,74.347 219.966,74.470 220.526 C 74.593 221.086,74.834 221.544,75.006 221.544 C 75.178 221.544,75.318 221.925,75.318 222.392 C 75.318 222.858,75.457 223.240,75.628 223.240 C 75.798 223.240,76.040 223.851,76.166 224.597 C 76.292 225.344,76.535 225.954,76.705 225.954 C 76.875 225.954,77.014 226.260,77.014 226.633 C 77.014 227.006,77.165 227.311,77.350 227.311 C 77.534 227.311,77.783 227.922,77.902 228.668 C 78.021 229.415,78.240 230.025,78.388 230.025 C 78.536 230.025,78.757 230.483,78.880 231.043 C 79.003 231.603,79.244 232.061,79.416 232.061 C 79.588 232.061,79.729 232.443,79.729 232.909 C 79.729 233.376,79.869 233.757,80.041 233.757 C 80.213 233.757,80.454 234.215,80.577 234.775 C 80.700 235.335,80.941 235.793,81.113 235.793 C 81.284 235.793,81.425 236.113,81.425 236.505 C 81.425 237.216,82.378 239.543,82.800 239.864 C 82.923 239.958,83.129 240.606,83.257 241.306 C 83.386 242.006,83.637 242.578,83.815 242.578 C 83.993 242.578,84.139 242.807,84.139 243.087 C 84.139 243.367,84.272 243.596,84.435 243.596 C 84.598 243.596,84.829 244.207,84.948 244.953 C 85.067 245.700,85.296 246.310,85.457 246.310 C 85.617 246.310,85.846 246.921,85.966 247.668 C 86.085 248.414,86.334 249.025,86.518 249.025 C 86.702 249.025,86.853 249.254,86.853 249.534 C 86.853 249.813,87.006 250.042,87.193 250.042 C 87.379 250.042,87.533 250.386,87.534 250.806 C 87.535 251.226,87.735 251.951,87.978 252.417 C 88.222 252.884,88.709 254.067,89.061 255.047 C 89.413 256.026,89.822 256.828,89.970 256.828 C 90.117 256.828,90.336 257.439,90.455 258.185 C 90.574 258.931,90.805 259.542,90.968 259.542 C 91.131 259.542,91.264 259.771,91.264 260.051 C 91.264 260.331,91.415 260.560,91.599 260.560 C 91.783 260.560,92.032 261.170,92.151 261.917 C 92.271 262.663,92.500 263.274,92.660 263.274 C 92.821 263.274,93.050 263.885,93.169 264.631 C 93.288 265.377,93.519 265.988,93.682 265.988 C 93.845 265.988,93.978 266.293,93.978 266.667 C 93.978 267.040,94.129 267.345,94.313 267.345 C 94.498 267.345,94.746 267.956,94.865 268.702 C 94.985 269.449,95.204 270.059,95.351 270.059 C 95.499 270.059,95.721 270.517,95.844 271.077 C 95.967 271.637,96.208 272.095,96.380 272.095 C 96.552 272.095,96.692 272.477,96.692 272.943 C 96.692 273.410,96.833 273.791,97.004 273.791 C 97.176 273.791,97.417 274.249,97.540 274.809 C 97.663 275.369,97.904 275.827,98.076 275.827 C 98.248 275.827,98.388 276.209,98.388 276.675 C 98.388 277.142,98.534 277.523,98.712 277.523 C 98.891 277.523,99.137 278.058,99.259 278.711 C 99.382 279.364,99.598 279.898,99.740 279.898 C 99.882 279.898,100.096 280.509,100.215 281.255 C 100.334 282.002,100.583 282.612,100.767 282.612 C 100.952 282.612,101.103 282.994,101.103 283.461 C 101.103 283.927,101.243 284.309,101.415 284.309 C 101.587 284.309,101.828 284.767,101.951 285.327 C 102.074 285.886,102.295 286.344,102.443 286.344 C 102.591 286.344,102.810 286.955,102.929 287.701 C 103.049 288.448,103.297 289.059,103.482 289.059 C 103.666 289.059,103.817 289.288,103.817 289.567 C 103.817 289.847,103.950 290.076,104.113 290.076 C 104.275 290.076,104.506 290.687,104.626 291.433 C 104.745 292.180,104.993 292.791,105.178 292.791 C 105.362 292.791,105.513 293.096,105.513 293.469 C 105.513 293.842,105.646 294.148,105.809 294.148 C 105.972 294.148,106.203 294.758,106.322 295.505 C 106.441 296.251,106.688 296.862,106.870 296.862 C 107.052 296.862,107.299 297.472,107.418 298.219 C 107.538 298.965,107.769 299.576,107.931 299.576 C 108.094 299.576,108.227 299.805,108.227 300.085 C 108.227 300.365,108.360 300.594,108.523 300.594 C 108.686 300.594,108.917 301.204,109.036 301.951 C 109.155 302.697,109.402 303.308,109.584 303.308 C 109.767 303.308,110.013 303.919,110.133 304.665 C 110.252 305.411,110.483 306.022,110.646 306.022 C 110.808 306.022,110.941 306.251,110.941 306.531 C 110.941 306.811,111.075 307.040,111.238 307.040 C 111.402 307.040,111.634 307.535,111.755 308.140 C 112.033 309.529,112.726 311.111,113.056 311.111 C 113.195 311.111,113.406 311.722,113.525 312.468 C 113.645 313.215,113.863 313.825,114.011 313.825 C 114.159 313.825,114.381 314.283,114.504 314.843 C 114.627 315.403,114.868 315.861,115.040 315.861 C 115.211 315.861,115.352 316.243,115.352 316.709 C 115.352 317.176,115.498 317.557,115.676 317.557 C 115.854 317.557,116.100 318.092,116.223 318.745 C 116.345 319.398,116.581 319.932,116.747 319.932 C 116.913 319.932,117.048 320.166,117.048 320.452 C 117.048 320.737,117.277 321.059,117.557 321.167 C 117.837 321.274,118.066 321.651,118.066 322.004 C 118.066 322.357,118.202 322.646,118.369 322.646 C 118.535 322.646,118.764 323.018,118.878 323.472 C 118.992 323.926,119.391 324.394,119.763 324.513 C 120.136 324.631,120.441 324.943,120.441 325.206 C 120.441 325.834,125.886 331.319,126.797 331.608 C 127.185 331.732,127.589 332.056,127.693 332.328 C 127.798 332.601,128.084 332.824,128.328 332.824 C 128.573 332.824,128.993 333.130,129.262 333.503 C 129.531 333.876,129.908 334.187,130.100 334.193 C 130.292 334.199,131.060 334.500,131.807 334.860 C 132.553 335.221,133.355 335.521,133.588 335.527 C 133.821 335.533,134.012 335.691,134.012 335.878 C 134.012 336.064,134.241 336.217,134.521 336.217 C 134.801 336.217,135.030 336.355,135.030 336.525 C 135.030 336.694,135.793 336.937,136.726 337.065 C 137.659 337.194,138.422 337.437,138.422 337.606 C 138.422 337.775,138.791 337.913,139.242 337.913 C 139.693 337.913,140.113 338.055,140.175 338.229 C 140.543 339.253,157.547 339.254,158.592 338.229 C 158.769 338.056,159.189 337.913,159.525 337.913 C 159.861 337.913,160.136 337.775,160.136 337.606 C 160.136 337.437,160.899 337.194,161.832 337.065 C 162.765 336.937,163.528 336.694,163.528 336.525 C 163.528 336.355,163.757 336.217,164.037 336.217 C 164.317 336.217,164.546 336.081,164.546 335.916 C 164.546 335.750,165.081 335.514,165.734 335.391 C 166.387 335.269,166.921 335.039,166.921 334.881 C 166.921 334.724,167.303 334.499,167.769 334.381 C 168.236 334.264,168.617 334.019,168.617 333.836 C 168.617 333.653,168.830 333.503,169.090 333.503 C 169.350 333.503,169.651 333.274,169.758 332.994 C 169.865 332.714,170.194 332.485,170.489 332.485 C 170.784 332.485,171.378 332.103,171.811 331.637 C 172.243 331.170,172.700 330.789,172.827 330.789 C 173.303 330.789,177.099 326.774,177.099 326.271 C 177.099 325.982,177.397 325.651,177.760 325.536 C 178.124 325.420,178.528 324.990,178.657 324.580 C 178.787 324.169,179.154 323.605,179.474 323.325 C 179.794 323.045,180.164 322.472,180.297 322.053 C 180.429 321.633,180.668 321.289,180.827 321.289 C 180.986 321.289,181.217 320.831,181.340 320.271 C 181.463 319.712,181.704 319.254,181.876 319.254 C 182.048 319.254,182.188 319.025,182.188 318.745 C 182.188 318.465,182.339 318.236,182.524 318.236 C 182.708 318.236,182.956 317.625,183.076 316.879 C 183.195 316.132,183.412 315.522,183.557 315.522 C 183.702 315.522,183.926 314.758,184.054 313.825 C 184.183 312.892,184.426 312.129,184.595 312.129 C 184.764 312.129,184.902 311.701,184.902 311.179 C 184.902 310.656,185.090 310.041,185.320 309.812 C 185.909 309.223,185.899 295.441,185.310 295.245 C 185.086 295.170,184.902 294.664,184.902 294.119 C 184.902 293.575,184.764 293.130,184.595 293.130 C 184.426 293.130,184.183 292.366,184.054 291.433 C 183.926 290.500,183.702 289.737,183.557 289.737 C 183.412 289.737,183.195 289.126,183.076 288.380 C 182.956 287.634,182.708 287.023,182.524 287.023 C 182.339 287.023,182.188 286.794,182.188 286.514 C 182.188 286.234,182.053 286.005,181.888 286.005 C 181.722 286.005,181.484 285.318,181.358 284.478 C 181.232 283.639,181.002 282.952,180.847 282.952 C 180.692 282.952,180.464 282.532,180.340 282.019 C 180.014 280.670,179.349 279.220,179.056 279.220 C 178.917 279.220,178.706 278.609,178.587 277.863 C 178.467 277.116,178.236 276.506,178.074 276.506 C 177.911 276.506,177.778 276.277,177.778 275.997 C 177.778 275.717,177.645 275.488,177.482 275.488 C 177.319 275.488,177.088 274.877,176.969 274.131 C 176.850 273.384,176.603 272.774,176.421 272.774 C 176.239 272.774,175.992 272.163,175.872 271.416 C 175.753 270.670,175.522 270.059,175.360 270.059 C 175.197 270.059,175.064 269.754,175.064 269.381 C 175.064 269.008,174.913 268.702,174.728 268.702 C 174.544 268.702,174.295 268.092,174.176 267.345 C 174.057 266.599,173.838 265.988,173.690 265.988 C 173.542 265.988,173.321 265.530,173.198 264.970 C 173.075 264.411,172.834 263.953,172.662 263.953 C 172.490 263.953,172.349 263.571,172.349 263.104 C 172.349 262.638,172.209 262.256,172.037 262.256 C 171.865 262.256,171.624 261.798,171.501 261.238 C 171.378 260.679,171.137 260.221,170.965 260.221 C 170.794 260.221,170.653 259.839,170.653 259.372 C 170.653 258.906,170.502 258.524,170.318 258.524 C 170.133 258.524,169.885 257.913,169.766 257.167 C 169.646 256.421,169.432 255.810,169.290 255.810 C 169.148 255.810,168.932 255.276,168.809 254.623 C 168.687 253.969,168.441 253.435,168.263 253.435 C 168.085 253.435,167.939 253.053,167.939 252.587 C 167.939 252.120,167.798 251.739,167.627 251.739 C 167.455 251.739,167.214 251.281,167.091 250.721 C 166.968 250.161,166.746 249.703,166.598 249.703 C 166.450 249.703,166.232 249.092,166.112 248.346 C 165.993 247.600,165.744 246.989,165.560 246.989 C 165.376 246.989,165.225 246.760,165.225 246.480 C 165.225 246.200,165.072 245.971,164.885 245.971 C 164.699 245.971,164.546 245.651,164.546 245.259 C 164.546 244.548,163.593 242.221,163.171 241.900 C 163.048 241.807,162.842 241.158,162.714 240.458 C 162.585 239.758,162.354 239.186,162.199 239.186 C 162.045 239.186,161.821 238.575,161.702 237.829 C 161.582 237.082,161.334 236.472,161.150 236.472 C 160.965 236.472,160.814 236.243,160.814 235.963 C 160.814 235.683,160.681 235.454,160.518 235.454 C 160.356 235.454,160.125 234.843,160.005 234.097 C 159.886 233.350,159.644 232.740,159.469 232.740 C 159.293 232.740,159.043 232.167,158.915 231.467 C 158.786 230.768,158.580 230.119,158.458 230.025 C 158.035 229.704,157.082 227.377,157.082 226.666 C 157.082 226.275,156.930 225.954,156.743 225.954 C 156.556 225.954,156.404 225.725,156.404 225.445 C 156.404 225.165,156.253 224.936,156.068 224.936 C 155.884 224.936,155.636 224.326,155.516 223.579 C 155.397 222.833,155.168 222.222,155.007 222.222 C 154.847 222.222,154.618 221.612,154.498 220.865 C 154.379 220.119,154.148 219.508,153.985 219.508 C 153.823 219.508,153.690 219.279,153.690 218.999 C 153.690 218.719,153.539 218.490,153.354 218.490 C 153.170 218.490,152.921 217.880,152.802 217.133 C 152.683 216.387,152.464 215.776,152.316 215.776 C 152.168 215.776,151.947 215.320,151.824 214.762 C 151.702 214.205,151.461 213.661,151.289 213.555 C 151.116 213.448,150.975 212.988,150.975 212.533 C 150.975 212.078,150.835 211.705,150.663 211.705 C 150.491 211.705,150.250 211.247,150.127 210.687 C 150.004 210.127,149.763 209.669,149.591 209.669 C 149.420 209.669,149.279 209.288,149.279 208.821 C 149.279 208.355,149.139 207.973,148.967 207.973 C 148.795 207.973,148.554 207.515,148.431 206.955 C 148.308 206.395,148.086 205.937,147.938 205.937 C 147.790 205.937,147.572 205.327,147.452 204.580 C 147.333 203.834,147.085 203.223,146.900 203.223 C 146.716 203.223,146.565 202.918,146.565 202.545 C 146.565 202.171,146.432 201.866,146.269 201.866 C 146.106 201.866,145.875 201.255,145.756 200.509 C 145.637 199.763,145.408 199.152,145.247 199.152 C 145.087 199.152,144.858 198.541,144.738 197.795 C 144.619 197.048,144.370 196.438,144.186 196.438 C 144.002 196.438,143.851 196.209,143.851 195.929 C 143.851 195.649,143.718 195.420,143.555 195.420 C 143.392 195.420,143.161 194.809,143.042 194.063 C 142.923 193.316,142.674 192.706,142.490 192.706 C 142.305 192.706,142.154 192.477,142.154 192.197 C 142.154 191.917,142.021 191.688,141.858 191.688 C 141.696 191.688,141.465 191.077,141.346 190.331 C 141.226 189.584,140.997 188.974,140.836 188.974 C 140.675 188.974,140.444 188.479,140.323 187.874 C 140.045 186.484,139.352 184.902,139.022 184.902 C 138.883 184.902,138.672 184.292,138.553 183.545 C 138.433 182.799,138.204 182.188,138.044 182.188 C 137.883 182.188,137.654 181.578,137.535 180.831 C 137.416 180.085,137.185 179.474,137.022 179.474 C 136.859 179.474,136.726 179.245,136.726 178.965 C 136.726 178.685,136.575 178.456,136.391 178.456 C 136.206 178.456,135.958 177.846,135.839 177.099 C 135.719 176.353,135.488 175.742,135.326 175.742 C 135.163 175.742,135.030 175.513,135.030 175.233 C 135.030 174.953,134.894 174.724,134.728 174.724 C 134.562 174.724,134.328 174.196,134.207 173.551 C 134.086 172.906,133.764 171.952,133.492 171.431 C 133.221 170.910,132.997 170.293,132.996 170.059 C 132.995 169.826,132.841 169.635,132.655 169.635 C 132.468 169.635,132.316 169.254,132.316 168.787 C 132.316 168.321,132.175 167.939,132.003 167.939 C 131.831 167.939,131.590 167.481,131.467 166.921 C 131.344 166.361,131.123 165.903,130.975 165.903 C 130.827 165.903,130.608 165.293,130.489 164.546 C 130.370 163.800,130.121 163.189,129.937 163.189 C 129.752 163.189,129.601 162.807,129.601 162.341 C 129.601 161.874,129.456 161.493,129.277 161.493 C 129.099 161.493,128.853 160.958,128.731 160.305 C 128.608 159.652,128.372 159.118,128.207 159.118 C 128.041 159.118,127.905 158.798,127.905 158.407 C 127.905 157.754,126.998 155.787,126.512 155.386 C 126.399 155.293,126.201 154.644,126.073 153.944 C 125.944 153.244,125.693 152.672,125.515 152.672 C 125.337 152.672,125.191 152.443,125.191 152.163 C 125.191 151.883,125.058 151.654,124.895 151.654 C 124.732 151.654,124.501 151.043,124.382 150.297 C 124.263 149.550,124.028 148.940,123.860 148.940 C 123.692 148.940,123.451 148.329,123.325 147.583 C 123.199 146.836,122.956 146.226,122.786 146.226 C 122.616 146.226,122.477 145.920,122.477 145.547 C 122.477 145.174,122.344 144.869,122.181 144.869 C 122.018 144.869,121.787 144.258,121.668 143.511 C 121.548 142.765,121.317 142.154,121.152 142.154 C 120.988 142.154,120.752 141.735,120.628 141.221 C 120.303 139.873,119.637 138.422,119.344 138.422 C 119.206 138.422,118.994 137.812,118.875 137.065 C 118.756 136.319,118.525 135.708,118.362 135.708 C 118.199 135.708,118.066 135.479,118.066 135.199 C 118.066 134.919,117.927 134.690,117.757 134.690 C 117.587 134.690,117.344 134.080,117.218 133.333 C 117.092 132.587,116.866 131.976,116.717 131.976 C 116.568 131.976,116.345 131.442,116.223 130.789 C 116.100 130.136,115.854 129.601,115.676 129.601 C 115.498 129.601,115.352 129.220,115.352 128.753 C 115.352 128.287,115.211 127.905,115.040 127.905 C 114.868 127.905,114.627 127.447,114.504 126.887 C 114.381 126.327,114.159 125.869,114.011 125.869 C 113.863 125.869,113.645 125.259,113.525 124.512 C 113.406 123.766,113.157 123.155,112.973 123.155 C 112.789 123.155,112.638 122.774,112.638 122.307 C 112.638 121.841,112.492 121.459,112.314 121.459 C 112.136 121.459,111.890 120.925,111.767 120.271 C 111.645 119.618,111.409 119.084,111.243 119.084 C 111.077 119.084,110.941 118.779,110.941 118.405 C 110.941 118.032,110.806 117.727,110.640 117.727 C 110.474 117.727,110.238 117.193,110.116 116.539 C 109.993 115.886,109.767 115.352,109.612 115.352 C 109.458 115.352,109.234 114.741,109.115 113.995 C 108.995 113.249,108.747 112.638,108.563 112.638 C 108.378 112.638,108.227 112.409,108.227 112.129 C 108.227 111.849,108.094 111.620,107.931 111.620 C 107.769 111.620,107.538 111.009,107.418 110.263 C 107.299 109.517,107.064 108.906,106.896 108.906 C 106.728 108.906,106.487 108.295,106.361 107.549 C 106.235 106.802,105.993 106.192,105.823 106.192 C 105.652 106.192,105.513 105.886,105.513 105.513 C 105.513 105.140,105.374 104.835,105.204 104.835 C 105.034 104.835,104.791 104.224,104.665 103.478 C 104.539 102.731,104.296 102.120,104.126 102.120 C 103.956 102.120,103.817 101.891,103.817 101.612 C 103.817 101.332,103.684 101.103,103.521 101.103 C 103.358 101.103,103.127 100.492,103.008 99.746 C 102.889 98.999,102.642 98.388,102.460 98.388 C 102.278 98.388,102.031 97.778,101.911 97.031 C 101.792 96.285,101.561 95.674,101.399 95.674 C 101.236 95.674,101.103 95.445,101.103 95.165 C 101.103 94.885,100.963 94.656,100.793 94.656 C 100.623 94.656,100.381 94.046,100.254 93.299 C 100.128 92.553,99.903 91.942,99.753 91.942 C 99.604 91.942,99.382 91.408,99.259 90.755 C 99.137 90.102,98.891 89.567,98.712 89.567 C 98.534 89.567,98.388 89.186,98.388 88.719 C 98.388 88.253,98.238 87.871,98.053 87.871 C 97.869 87.871,97.620 87.260,97.501 86.514 C 97.382 85.768,97.151 85.157,96.988 85.157 C 96.825 85.157,96.692 84.928,96.692 84.648 C 96.692 84.368,96.541 84.139,96.357 84.139 C 96.172 84.139,95.924 83.528,95.805 82.782 C 95.685 82.036,95.467 81.425,95.319 81.425 C 95.171 81.425,94.949 80.969,94.827 80.411 C 94.704 79.853,94.463 79.310,94.291 79.204 C 94.119 79.097,93.978 78.714,93.978 78.351 C 93.978 77.989,93.842 77.693,93.676 77.693 C 93.511 77.693,93.275 77.159,93.152 76.506 C 93.030 75.852,92.803 75.318,92.649 75.318 C 92.495 75.318,92.271 74.707,92.151 73.961 C 92.032 73.215,91.783 72.604,91.599 72.604 C 91.415 72.604,91.264 72.375,91.264 72.095 C 91.264 71.815,91.131 71.586,90.968 71.586 C 90.805 71.586,90.574 70.975,90.455 70.229 C 90.336 69.483,90.087 68.872,89.903 68.872 C 89.718 68.872,89.567 68.490,89.567 68.024 C 89.567 67.557,89.422 67.176,89.244 67.176 C 89.065 67.176,88.819 66.641,88.697 65.988 C 88.574 65.335,88.338 64.801,88.173 64.801 C 88.007 64.801,87.871 64.557,87.871 64.258 C 87.871 63.679,86.868 61.351,86.496 61.069 C 86.373 60.975,86.167 60.327,86.039 59.627 C 85.910 58.927,85.661 58.355,85.485 58.355 C 85.309 58.355,85.067 57.744,84.948 56.997 C 84.829 56.251,84.598 55.640,84.435 55.640 C 84.272 55.640,84.139 55.411,84.139 55.131 C 84.139 54.852,83.988 54.623,83.804 54.623 C 83.619 54.623,83.371 54.012,83.252 53.265 C 83.132 52.519,82.901 51.908,82.739 51.908 C 82.576 51.908,82.443 51.603,82.443 51.230 C 82.443 50.857,82.292 50.551,82.107 50.551 C 81.923 50.551,81.675 49.941,81.555 49.194 C 81.436 48.448,81.207 47.837,81.046 47.837 C 80.886 47.837,80.657 47.226,80.537 46.480 C 80.418 45.734,80.187 45.123,80.024 45.123 C 79.862 45.123,79.729 44.894,79.729 44.614 C 79.729 44.334,79.578 44.105,79.393 44.105 C 79.209 44.105,78.960 43.494,78.841 42.748 C 78.722 42.002,78.503 41.391,78.355 41.391 C 78.207 41.391,77.986 40.933,77.863 40.373 C 77.740 39.813,77.499 39.355,77.327 39.355 C 77.155 39.355,77.014 38.974,77.014 38.507 C 77.014 38.041,76.879 37.659,76.713 37.659 C 76.547 37.659,76.311 37.125,76.189 36.472 C 76.066 35.818,75.820 35.284,75.642 35.284 C 75.464 35.284,75.318 34.902,75.318 34.436 C 75.318 33.969,75.178 33.588,75.006 33.588 C 74.834 33.588,74.593 33.130,74.470 32.570 C 74.347 32.010,74.125 31.552,73.977 31.552 C 73.829 31.552,73.611 30.941,73.491 30.195 C 73.372 29.449,73.124 28.838,72.939 28.838 C 72.755 28.838,72.604 28.456,72.604 27.990 C 72.604 27.523,72.463 27.142,72.292 27.142 C 72.120 27.142,71.879 26.684,71.756 26.124 C 71.633 25.564,71.392 25.106,71.220 25.106 C 71.048 25.106,70.908 24.802,70.908 24.430 C 70.908 23.627,69.831 21.035,69.497 21.035 C 69.370 21.035,69.165 20.577,69.042 20.017 C 68.919 19.457,68.677 18.999,68.506 18.999 C 68.334 18.999,68.193 18.770,68.193 18.490 C 68.193 18.210,68.041 17.981,67.854 17.981 C 67.668 17.981,67.515 17.671,67.515 17.292 C 67.515 16.913,67.286 16.515,67.006 16.408 C 66.726 16.300,66.497 15.919,66.497 15.560 C 66.497 15.200,66.268 14.819,65.988 14.711 C 65.708 14.604,65.479 14.373,65.479 14.199 C 65.479 13.850,65.114 13.377,63.672 11.864 C 63.144 11.310,62.582 10.857,62.423 10.857 C 62.263 10.857,62.038 10.559,61.922 10.195 C 61.807 9.832,61.423 9.442,61.069 9.330 C 60.715 9.218,60.333 8.836,60.221 8.482 C 60.108 8.128,59.680 7.733,59.270 7.604 C 58.860 7.475,58.219 7.044,57.846 6.646 C 57.472 6.248,56.595 5.651,55.895 5.320 C 55.195 4.989,54.623 4.589,54.623 4.432 C 54.623 4.275,54.088 4.047,53.435 3.924 C 52.782 3.801,52.248 3.555,52.248 3.377 C 52.248 3.199,52.019 3.053,51.739 3.053 C 51.459 3.053,51.230 2.920,51.230 2.758 C 51.230 2.595,50.619 2.364,49.873 2.245 C 49.126 2.125,48.516 1.877,48.516 1.692 C 48.516 1.508,48.134 1.357,47.668 1.357 C 47.201 1.357,46.819 1.224,46.819 1.062 C 46.819 0.146,33.802 -0.295,28.075 0.428 " stroke="none" fill="#5c9cd4" fill-rule="evenodd"></path></g></svg>